<?xml version="1.0" encoding="iso-8859-1"?>
<!-- Generator: Adobe Illustrator 19.0.0, SVG Export Plug-In . SVG Version: 6.00 Build 0)  -->
<svg xmlns="http://www.w3.org/2000/svg" xmlns:xlink="http://www.w3.org/1999/xlink" version="1.1" id="Layer_1" x="0px" y="0px" viewBox="0 0 493.082 493.082" style="enable-background:new 0 0 493.082 493.082;" xml:space="preserve" width="512" height="512">
<g>
	<path style="fill:#B33E78;" d="M348.97,326.556c-8.284,0-15,6.716-15,15v56.634l-47.148-65.406   c-8.478-11.762-27.168-5.762-27.168,8.771v103.095c0,8.284,6.716,15,15,15s15-6.716,15-15v-56.634l47.148,65.406   c8.5,11.793,27.168,5.766,27.168-8.771V341.556C363.97,333.272,357.255,326.556,348.97,326.556z"/>
	<path style="fill:#FF2B59;" d="M219.859,356.556c8.284,0,15-6.716,15-15s-6.716-15-15-15h-74.316c-8.284,0-15,6.716-15,15v103.095   c0,8.284,6.716,15,15,15h74.316c8.284,0,15-6.716,15-15s-6.716-15-15-15h-59.316v-21.547h37.034c8.284,0,15-6.716,15-15   s-6.716-15-15-15h-37.034v-21.547H219.859z"/>
	<path style="fill:#FF2B59;" d="M105.748,367.33c0-22.483-18.291-40.774-40.773-40.774H16.432c-8.284,0-15,6.716-15,15   c0,14.935,0,88.132,0,103.095c0,8.284,6.716,15,15,15s15-6.716,15-15v-36.547h14.375L78.484,454.5   c4.769,6.771,14.125,8.399,20.901,3.626c6.773-4.77,8.396-14.128,3.626-20.901l-22.642-32.149   C95.24,398.988,105.748,384.366,105.748,367.33z M31.432,356.556h33.542c5.94,0,10.773,4.833,10.773,10.774   c0,5.94-4.833,10.773-10.773,10.773H31.432V356.556z"/>
	<path style="fill:#B33E78;" d="M478.082,326.556h-74.316c-8.284,0-15,6.716-15,15s6.716,15,15,15h22.158v88.095   c0,8.284,6.716,15,15,15s15-6.716,15-15v-88.095h22.158c8.284,0,15-6.716,15-15S486.366,326.556,478.082,326.556z"/>
	<path style="fill:#FF2B59;" d="M475.601,236.696H49.041c-33.44,0-56.98-32.71-46.54-64.49c2.63-8.01,5.76-15.81,9.32-23.33   c32.68-69.05,101.39-117.73,199.37-116.64c12.33,0.09,23.93,1.07,34.81,2.87c67.73,11.13,110.44,54.47,121.79,113.77h75.51   c18.21,0,34.11,12.34,38.61,29.98l9.57,37.39C494.131,226.616,486.301,236.696,475.601,236.696z"/>
	<path style="fill:#B33E78;" d="M475.601,236.696h-229.6V35.106c67.73,11.13,110.44,54.47,121.79,113.77h75.51   c18.21,0,34.11,12.34,38.61,29.98l9.57,37.39C494.131,226.616,486.301,236.696,475.601,236.696z"/>
	<path style="fill:#FFEAC3;" d="M367.791,148.876H11.821c32.68-69.05,101.39-117.73,199.37-116.64c12.33,0.09,23.93,1.07,34.81,2.87   C313.731,46.236,356.441,89.576,367.791,148.876z"/>
	<path style="fill:#FFD17E;" d="M367.791,148.876h-121.79V35.106C313.731,46.236,356.441,89.576,367.791,148.876z"/>
	<path style="fill:#233952;" d="M374.531,190.661c32.872,0,59.615,26.743,59.615,59.615s-26.743,59.615-59.615,59.615   s-59.615-26.743-59.615-59.615S341.659,190.661,374.531,190.661z"/>
	<path style="fill:#FFD17E;" d="M346.562,250.28c0,15.413,12.543,27.967,27.966,27.967c15.423,0,27.966-12.554,27.966-27.967   c0-15.423-12.543-27.966-27.966-27.966C359.106,222.313,346.562,234.857,346.562,250.28z"/>
	<path style="fill:#3D5168;" d="M115.542,190.661c32.872,0,59.615,26.743,59.615,59.615s-26.743,59.615-59.615,59.615   s-59.615-26.743-59.615-59.615S82.67,190.661,115.542,190.661z"/>
	<path style="fill:#FFEAC3;" d="M87.575,250.28c0,15.413,12.543,27.967,27.966,27.967c15.423,0,27.966-12.554,27.966-27.967   c0-15.423-12.543-27.966-27.966-27.966C100.118,222.313,87.575,234.857,87.575,250.28z"/>
</g>















</svg>
